<svg data-v-423bf9ae="" xmlns="http://www.w3.org/2000/svg" viewBox="0 0 405 90" class="iconLeftSlogan"><!----><!----><!----><g data-v-423bf9ae="" id="edfb9a19-8dd6-4631-a958-6dc8f2177c9c" fill="black" transform="matrix(6.128702640533447,0,0,6.128702640533447,130.4307098388672,-18.079673767089844)"><path d="M1.24 12.61L1.24 2.95L4.59 2.95L4.59 2.95Q5.39 2.95 6.09 3.21L6.09 3.21L6.09 3.21Q6.79 3.47 7.24 4.05L7.24 4.05L7.24 4.05Q7.68 4.63 7.68 5.55L7.68 5.55L7.68 5.55Q7.68 6.17 7.37 6.69L7.37 6.69L7.37 6.69Q7.05 7.20 6.61 7.44L6.61 7.44L6.61 7.44Q7.04 7.61 7.40 7.98L7.40 7.98L7.40 7.98Q7.75 8.36 7.96 8.84L7.96 8.84L7.96 8.84Q8.16 9.32 8.16 9.80L8.16 9.80L8.16 9.80Q8.16 10.67 7.73 11.31L7.73 11.31L7.73 11.31Q7.29 11.94 6.57 12.27L6.57 12.27L6.57 12.27Q5.84 12.61 5.01 12.61L5.01 12.61L1.24 12.61ZM2.98 6.84L4.76 6.84L4.76 6.84Q5.35 6.84 5.72 6.57L5.72 6.57L5.72 6.57Q6.09 6.30 6.09 5.65L6.09 5.65L6.09 5.65Q6.09 5.10 5.68 4.81L5.68 4.81L5.68 4.81Q5.27 4.51 4.62 4.51L4.62 4.51L2.98 4.51L2.98 6.84ZM2.98 10.95L5.04 10.95L5.04 10.95Q5.72 10.95 6.09 10.62L6.09 10.62L6.09 10.62Q6.45 10.28 6.45 9.61L6.45 9.61L6.45 9.61Q6.45 9.26 6.27 8.97L6.27 8.97L6.27 8.97Q6.08 8.68 5.75 8.51L5.75 8.51L5.75 8.51Q5.41 8.33 4.97 8.33L4.97 8.33L2.98 8.33L2.98 10.95ZM12.56 12.74L12.56 12.74Q11.53 12.74 10.73 12.26L10.73 12.26L10.73 12.26Q9.93 11.78 9.50 10.96L9.50 10.96L9.50 10.96Q9.06 10.14 9.06 9.17L9.06 9.17L9.06 9.17Q9.06 8.21 9.50 7.40L9.50 7.40L9.50 7.40Q9.93 6.59 10.73 6.11L10.73 6.11L10.73 6.11Q11.53 5.63 12.56 5.63L12.56 5.63L12.56 5.63Q13.58 5.63 14.38 6.11L14.38 6.11L14.38 6.11Q15.18 6.59 15.62 7.40L15.62 7.40L15.62 7.40Q16.06 8.21 16.06 9.17L16.06 9.17L16.06 9.17Q16.06 10.14 15.62 10.96L15.62 10.96L15.62 10.96Q15.18 11.78 14.38 12.26L14.38 12.26L14.38 12.26Q13.58 12.74 12.56 12.74L12.56 12.74ZM12.56 11.31L12.56 11.31Q13.16 11.31 13.56 11.02L13.56 11.02L13.56 11.02Q13.95 10.73 14.14 10.24L14.14 10.24L14.14 10.24Q14.32 9.76 14.32 9.17L14.32 9.17L14.32 9.17Q14.32 8.26 13.89 7.67L13.89 7.67L13.89 7.67Q13.45 7.08 12.56 7.08L12.56 7.08L12.56 7.08Q11.96 7.08 11.56 7.36L11.56 7.36L11.56 7.36Q11.16 7.64 10.98 8.11L10.98 8.11L10.98 8.11Q10.79 8.59 10.79 9.17L10.79 9.17L10.79 9.17Q10.79 9.76 10.98 10.24L10.98 10.24L10.98 10.24Q11.16 10.73 11.56 11.02L11.56 11.02L11.56 11.02Q11.96 11.31 12.56 11.31L12.56 11.31ZM20.27 12.74L20.27 12.74Q19.24 12.74 18.44 12.26L18.44 12.26L18.44 12.26Q17.64 11.78 17.21 10.96L17.21 10.96L17.21 10.96Q16.77 10.14 16.77 9.17L16.77 9.17L16.77 9.17Q16.77 8.21 17.21 7.40L17.21 7.40L17.21 7.40Q17.64 6.59 18.44 6.11L18.44 6.11L18.44 6.11Q19.24 5.63 20.27 5.63L20.27 5.63L20.27 5.63Q21.29 5.63 22.09 6.11L22.09 6.11L22.09 6.11Q22.89 6.59 23.33 7.40L23.33 7.40L23.33 7.40Q23.77 8.21 23.77 9.17L23.77 9.17L23.77 9.17Q23.77 10.14 23.33 10.96L23.33 10.96L23.33 10.96Q22.89 11.78 22.09 12.26L22.09 12.26L22.09 12.26Q21.29 12.74 20.27 12.74L20.27 12.74ZM20.27 11.31L20.27 11.31Q20.87 11.31 21.27 11.02L21.27 11.02L21.27 11.02Q21.66 10.73 21.85 10.24L21.85 10.24L21.85 10.24Q22.03 9.76 22.03 9.17L22.03 9.17L22.03 9.17Q22.03 8.26 21.60 7.67L21.60 7.67L21.60 7.67Q21.16 7.08 20.27 7.08L20.27 7.08L20.27 7.08Q19.67 7.08 19.27 7.36L19.27 7.36L19.27 7.36Q18.87 7.64 18.69 8.11L18.69 8.11L18.69 8.11Q18.50 8.59 18.50 9.17L18.50 9.17L18.50 9.17Q18.50 9.76 18.69 10.24L18.69 10.24L18.69 10.24Q18.87 10.73 19.27 11.02L19.27 11.02L19.27 11.02Q19.67 11.31 20.27 11.31L20.27 11.31ZM25.14 12.61L25.14 2.95L26.80 2.95L26.80 8.61L29.38 5.78L31.55 5.78L28.99 8.42L31.83 12.61L29.86 12.61L27.86 9.44L26.80 10.60L26.80 12.61L25.14 12.61ZM35.61 12.74L35.61 12.74Q34.48 12.74 33.70 12.26L33.70 12.26L33.70 12.26Q32.92 11.77 32.54 10.97L32.54 10.97L32.54 10.97Q32.15 10.17 32.15 9.21L32.15 9.21L32.15 9.21Q32.15 8.29 32.52 7.46L32.52 7.46L32.52 7.46Q32.89 6.64 33.64 6.14L33.64 6.14L33.64 6.14Q34.40 5.63 35.50 5.63L35.50 5.63L35.50 5.63Q36.62 5.63 37.33 6.15L37.33 6.15L37.33 6.15Q38.04 6.67 38.35 7.45L38.35 7.45L38.35 7.45Q38.66 8.23 38.66 9.08L38.66 9.08L38.66 9.08Q38.66 9.28 38.65 9.47L38.65 9.47L38.65 9.47Q38.63 9.66 38.60 9.73L38.60 9.73L33.91 9.73L33.91 9.73Q34.15 11.23 35.62 11.23L35.62 11.23L35.62 11.23Q36.11 11.23 36.51 11.06L36.51 11.06L36.51 11.06Q36.91 10.89 37.26 10.51L37.26 10.51L38.41 11.51L38.41 11.51Q37.85 12.13 37.16 12.44L37.16 12.44L37.16 12.44Q36.47 12.74 35.61 12.74L35.61 12.74ZM33.91 8.53L37.02 8.53L37.02 8.53Q36.94 7.81 36.54 7.42L36.54 7.42L36.54 7.42Q36.14 7.03 35.49 7.03L35.49 7.03L35.49 7.03Q34.19 7.03 33.91 8.53L33.91 8.53ZM40.06 12.61L40.06 5.78L41.69 5.78L41.69 6.92L41.69 6.92Q41.90 6.32 42.41 5.98L42.41 5.98L42.41 5.98Q42.92 5.63 43.52 5.63L43.52 5.63L43.52 5.63Q43.87 5.63 44.20 5.76L44.20 5.76L44.20 5.76Q44.53 5.88 44.77 6.13L44.77 6.13L44.01 7.49L44.01 7.49Q43.66 7.26 43.26 7.26L43.26 7.26L43.26 7.26Q42.85 7.26 42.49 7.52L42.49 7.52L42.49 7.52Q42.12 7.79 41.90 8.34L41.90 8.34L41.90 8.34Q41.67 8.89 41.67 9.72L41.67 9.72L41.67 12.61L40.06 12.61Z"></path></g><!----><g data-v-423bf9ae="" id="2441cf3d-0f51-4463-a4d6-9917433989aa" transform="matrix(1.2429736852645874,0,0,1.2429736852645874,-2.6653449535369873,-12.605164527893066)" stroke="none" fill="black"><path d="M96.745 23.405c-2.492-2.491-5.122-4.505-7.868-6.084v-2.906a3.029 3.029 0 0 0-2.525-2.988 49.51 49.51 0 0 0-8.211-.705c-14.937 0-24.331 7.179-28.153 10.84-3.943-2.874-12.827-8.326-23.479-8.326-8.48 0-16.199 3.421-22.945 10.167a3.029 3.029 0 0 0-.888 2.143V78.75c0 1.048.545 2.02 1.435 2.57.889.554 2.004.61 2.944.144.077-.038 7.826-3.798 19.142-3.798 7.77 0 15.395 1.74 22.663 5.172l.014.005a2.991 2.991 0 0 0 .679.219c.198.04.399.067.601.067.017 0 .033-.005.049-.005.152-.003.303-.019.454-.043a3.017 3.017 0 0 0 1.556-.578c7.039-3.199 14.4-4.836 21.899-4.836 11.314 0 19.063 3.76 19.136 3.795.94.471 2.055.419 2.948-.134a3.028 3.028 0 0 0 1.438-2.577V25.547a3.04 3.04 0 0 0-.889-2.142zM53.438 26.68c2.297-2.403 10.59-9.897 24.703-9.897 1.531 0 3.096.089 4.678.266v47.085a39.606 39.606 0 0 0-3.344-.139c-5.832 0-16.207 1.305-26.037 9.112V26.68zm-44.7 47.642V26.831c5.344-4.998 11.317-7.532 17.771-7.532 9.594 0 17.816 5.566 20.615 7.699V75.508c-6.769-2.592-13.788-3.904-20.927-3.904-7.54 0-13.639 1.47-17.459 2.718zm82.836.001c-3.821-1.248-9.922-2.718-17.461-2.718-2.076 0-4.14.124-6.192.346a35.987 35.987 0 0 1 11.552-1.896c3.438 0 5.656.508 5.67.51a3.04 3.04 0 0 0 2.582-.567 3.035 3.035 0 0 0 1.152-2.38V24.353c.912.823 1.816 1.657 2.697 2.479v47.491z"></path></g><!----><g data-v-423bf9ae="" id="23955eee-c538-436e-99d5-73ee2781fdde" fill="black" transform="matrix(0.5180366635322571,0,0,0.5180366635322571,137.2739715576172,58.114341735839844)"><path d="M7.76 4.42L2.16 4.42L2.16 7.99L6.59 7.99L6.59 8.65L2.16 8.65L2.16 13.02L1.46 13.02L1.46 3.78L7.76 3.78L7.76 4.42ZM21.99 13.02L20.83 10.12L16.41 10.12L15.26 13.02L14.52 13.02L18.21 3.78L19.04 3.78L22.74 13.02L21.99 13.02ZM16.67 9.48L20.58 9.48L18.97 5.45L18.63 4.47L18.62 4.47L18.28 5.42L16.67 9.48ZM34.20 3.64L34.20 3.64Q36.81 3.64 37.69 5.68L37.69 5.68L37.09 6.17L37.09 6.17Q36.74 5.18 36.04 4.73L36.04 4.73L36.04 4.73Q35.35 4.28 34.22 4.28L34.22 4.28L34.22 4.28Q33.40 4.28 32.80 4.54L32.80 4.54L32.80 4.54Q32.20 4.79 31.89 5.22L31.89 5.22L31.89 5.22Q31.57 5.66 31.57 6.20L31.57 6.20L31.57 6.20Q31.57 6.73 31.84 7.08L31.84 7.08L31.84 7.08Q32.10 7.43 32.74 7.68L32.74 7.68L32.74 7.68Q33.38 7.92 34.50 8.12L34.50 8.12L34.50 8.12Q36.30 8.43 37.06 9.02L37.06 9.02L37.06 9.02Q37.81 9.60 37.81 10.64L37.81 10.64L37.81 10.64Q37.81 11.38 37.38 11.96L37.38 11.96L37.38 11.96Q36.95 12.53 36.16 12.84L36.16 12.84L36.16 12.84Q35.36 13.16 34.34 13.16L34.34 13.16L34.34 13.16Q32.89 13.16 31.89 12.58L31.89 12.58L31.89 12.58Q30.88 12.00 30.52 10.95L30.52 10.95L31.14 10.47L31.14 10.47Q31.42 11.47 32.26 11.99L32.26 11.99L32.26 11.99Q33.11 12.52 34.36 12.52L34.36 12.52L34.36 12.52Q35.56 12.52 36.32 12.03L36.32 12.03L36.32 12.03Q37.09 11.54 37.09 10.68L37.09 10.68L37.09 10.68Q37.09 9.94 36.46 9.51L36.46 9.51L36.46 9.51Q35.84 9.07 34.30 8.81L34.30 8.81L34.30 8.81Q33.00 8.58 32.24 8.26L32.24 8.26L32.24 8.26Q31.49 7.94 31.16 7.46L31.16 7.46L31.16 7.46Q30.83 6.99 30.83 6.27L30.83 6.27L30.83 6.27Q30.83 5.56 31.24 4.96L31.24 4.96L31.24 4.96Q31.65 4.35 32.42 4.00L32.42 4.00L32.42 4.00Q33.18 3.64 34.20 3.64L34.20 3.64ZM52.89 3.78L52.89 4.42L49.52 4.42L49.52 13.02L48.82 13.02L48.82 4.42L45.44 4.42L45.44 3.78L52.89 3.78ZM72.66 13.02L72.66 3.78L75.92 3.78L75.92 3.78Q77.43 3.78 78.18 4.41L78.18 4.41L78.18 4.41Q78.93 5.04 78.93 6.23L78.93 6.23L78.93 6.23Q78.93 7.04 78.49 7.60L78.49 7.60L78.49 7.60Q78.05 8.16 77.24 8.33L77.24 8.33L77.24 8.34L77.24 8.34Q78.13 8.48 78.66 9.07L78.66 9.07L78.66 9.07Q79.18 9.66 79.18 10.53L79.18 10.53L79.18 10.53Q79.18 11.72 78.34 12.37L78.34 12.37L78.34 12.37Q77.49 13.02 75.92 13.02L75.92 13.02L72.66 13.02ZM73.36 8.04L75.94 8.04L75.94 8.04Q78.19 8.04 78.19 6.23L78.19 6.23L78.19 6.23Q78.19 4.42 75.94 4.42L75.94 4.42L73.36 4.42L73.36 8.04ZM73.36 12.38L76.06 12.38L76.06 12.38Q77.24 12.38 77.84 11.90L77.84 11.90L77.84 11.90Q78.44 11.42 78.44 10.53L78.44 10.53L78.44 10.53Q78.44 9.62 77.84 9.15L77.84 9.15L77.84 9.15Q77.24 8.68 76.06 8.68L76.06 8.68L73.36 8.68L73.36 12.38ZM92.18 3.64L92.18 3.64Q93.48 3.64 94.44 4.22L94.44 4.22L94.44 4.22Q95.40 4.80 95.91 5.87L95.91 5.87L95.91 5.87Q96.43 6.94 96.43 8.40L96.43 8.40L96.43 8.40Q96.43 9.86 95.91 10.93L95.91 10.93L95.91 10.93Q95.40 12.00 94.44 12.58L94.44 12.58L94.44 12.58Q93.48 13.16 92.18 13.16L92.18 13.16L92.18 13.16Q90.87 13.16 89.91 12.58L89.91 12.58L89.91 12.58Q88.96 12.00 88.44 10.93L88.44 10.93L88.44 10.93Q87.92 9.86 87.92 8.40L87.92 8.40L87.92 8.40Q87.92 6.94 88.44 5.87L88.44 5.87L88.44 5.87Q88.96 4.80 89.91 4.22L89.91 4.22L89.91 4.22Q90.87 3.64 92.18 3.64L92.18 3.64ZM92.18 4.28L92.18 4.28Q91.10 4.28 90.31 4.78L90.31 4.78L90.31 4.78Q89.52 5.28 89.09 6.21L89.09 6.21L89.09 6.21Q88.66 7.14 88.66 8.40L88.66 8.40L88.66 8.40Q88.66 9.66 89.09 10.59L89.09 10.59L89.09 10.59Q89.52 11.52 90.31 12.02L90.31 12.02L90.31 12.02Q91.10 12.52 92.18 12.52L92.18 12.52L92.18 12.52Q93.25 12.52 94.05 12.02L94.05 12.02L94.05 12.02Q94.85 11.52 95.28 10.59L95.28 10.59L95.28 10.59Q95.70 9.66 95.70 8.40L95.70 8.40L95.70 8.40Q95.70 7.14 95.28 6.21L95.28 6.21L95.28 6.21Q94.85 5.28 94.05 4.78L94.05 4.78L94.05 4.78Q93.25 4.28 92.18 4.28L92.18 4.28ZM109.42 3.64L109.42 3.64Q110.73 3.64 111.69 4.22L111.69 4.22L111.69 4.22Q112.64 4.80 113.16 5.87L113.16 5.87L113.16 5.87Q113.68 6.94 113.68 8.40L113.68 8.40L113.68 8.40Q113.68 9.86 113.16 10.93L113.16 10.93L113.16 10.93Q112.64 12.00 111.69 12.58L111.69 12.58L111.69 12.58Q110.73 13.16 109.42 13.16L109.42 13.16L109.42 13.16Q108.12 13.16 107.16 12.58L107.16 12.58L107.16 12.58Q106.20 12.00 105.69 10.93L105.69 10.93L105.69 10.93Q105.17 9.86 105.17 8.40L105.17 8.40L105.17 8.40Q105.17 6.94 105.69 5.87L105.69 5.87L105.69 5.87Q106.20 4.80 107.16 4.22L107.16 4.22L107.16 4.22Q108.12 3.64 109.42 3.64L109.42 3.64ZM109.42 4.28L109.42 4.28Q108.35 4.28 107.55 4.78L107.55 4.78L107.55 4.78Q106.76 5.28 106.34 6.21L106.34 6.21L106.34 6.21Q105.91 7.14 105.91 8.40L105.91 8.40L105.91 8.40Q105.91 9.66 106.34 10.59L106.34 10.59L106.34 10.59Q106.76 11.52 107.55 12.02L107.55 12.02L107.55 12.02Q108.35 12.52 109.42 12.52L109.42 12.52L109.42 12.52Q110.50 12.52 111.30 12.02L111.30 12.02L111.30 12.02Q112.10 11.52 112.52 10.59L112.52 10.59L112.52 10.59Q112.95 9.66 112.95 8.40L112.95 8.40L112.95 8.40Q112.95 7.14 112.52 6.21L112.52 6.21L112.52 6.21Q112.10 5.28 111.30 4.78L111.30 4.78L111.30 4.78Q110.50 4.28 109.42 4.28L109.42 4.28ZM128.94 13.02L125.55 8.04L123.70 9.91L123.70 13.02L123.00 13.02L123.00 3.78L123.70 3.78L123.70 8.96L128.77 3.78L129.70 3.78L126.04 7.52L129.79 13.02L128.94 13.02ZM156.16 3.78L156.86 3.78L156.86 13.02L156.16 13.02L156.16 8.65L150.44 8.65L150.44 13.02L149.74 13.02L149.74 3.78L150.44 3.78L150.44 7.99L156.16 7.99L156.16 3.78ZM167.47 12.38L173.31 12.38L173.31 13.02L166.77 13.02L166.77 3.78L173.08 3.78L173.08 4.42L167.47 4.42L167.47 7.99L171.91 7.99L171.91 8.65L167.47 8.65L167.47 12.38ZM189.28 13.02L188.45 13.02L185.81 9.02L185.77 9.02L183.04 9.02L183.04 13.02L182.34 13.02L182.34 3.78L185.77 3.78L185.77 3.78Q187.15 3.78 187.97 4.48L187.97 4.48L187.97 4.48Q188.79 5.18 188.79 6.40L188.79 6.40L188.79 6.40Q188.79 7.41 188.20 8.07L188.20 8.07L188.20 8.07Q187.61 8.74 186.59 8.93L186.59 8.93L189.28 13.02ZM183.04 4.42L183.04 8.36L185.75 8.36L185.75 8.36Q186.87 8.36 187.47 7.85L187.47 7.85L187.47 7.85Q188.06 7.35 188.06 6.40L188.06 6.40L188.06 6.40Q188.06 5.45 187.47 4.93L187.47 4.93L187.47 4.93Q186.87 4.42 185.75 4.42L185.75 4.42L183.04 4.42ZM199.00 12.38L204.83 12.38L204.83 13.02L198.30 13.02L198.30 3.78L204.61 3.78L204.61 4.42L199.00 4.42L199.00 7.99L203.43 7.99L203.43 8.65L199.00 8.65L199.00 12.38ZM225.95 3.78L225.95 13.02L225.25 13.02L225.25 3.78L225.95 3.78ZM242.96 3.78L242.96 13.02L242.09 13.02L237.19 5.77L236.50 4.54L236.49 4.54L236.53 5.70L236.53 13.02L235.86 13.02L235.86 3.78L236.74 3.78L241.63 11.02L242.33 12.26L242.30 11.10L242.30 3.78L242.96 3.78ZM264.25 13.02L264.25 3.78L267.51 3.78L267.51 3.78Q269.02 3.78 269.77 4.41L269.77 4.41L269.77 4.41Q270.52 5.04 270.52 6.23L270.52 6.23L270.52 6.23Q270.52 7.04 270.08 7.60L270.08 7.60L270.08 7.60Q269.64 8.16 268.83 8.33L268.83 8.33L268.83 8.34L268.83 8.34Q269.72 8.48 270.25 9.07L270.25 9.07L270.25 9.07Q270.77 9.66 270.77 10.53L270.77 10.53L270.77 10.53Q270.77 11.72 269.93 12.37L269.93 12.37L269.93 12.37Q269.08 13.02 267.51 13.02L267.51 13.02L264.25 13.02ZM264.95 8.04L267.53 8.04L267.53 8.04Q269.78 8.04 269.78 6.23L269.78 6.23L269.78 6.23Q269.78 4.42 267.53 4.42L267.53 4.42L264.95 4.42L264.95 8.04ZM264.95 12.38L267.65 12.38L267.65 12.38Q268.83 12.38 269.43 11.90L269.43 11.90L269.43 11.90Q270.03 11.42 270.03 10.53L270.03 10.53L270.03 10.53Q270.03 9.62 269.43 9.15L269.43 9.15L269.43 9.15Q268.83 8.68 267.65 8.68L267.65 8.68L264.95 8.68L264.95 12.38ZM283.77 3.64L283.77 3.64Q285.07 3.64 286.03 4.22L286.03 4.22L286.03 4.22Q286.99 4.80 287.50 5.87L287.50 5.87L287.50 5.87Q288.02 6.94 288.02 8.40L288.02 8.40L288.02 8.40Q288.02 9.86 287.50 10.93L287.50 10.93L287.50 10.93Q286.99 12.00 286.03 12.58L286.03 12.58L286.03 12.58Q285.07 13.16 283.77 13.16L283.77 13.16L283.77 13.16Q282.46 13.16 281.51 12.58L281.51 12.58L281.51 12.58Q280.55 12.00 280.03 10.93L280.03 10.93L280.03 10.93Q279.51 9.86 279.51 8.40L279.51 8.40L279.51 8.40Q279.51 6.94 280.03 5.87L280.03 5.87L280.03 5.87Q280.55 4.80 281.51 4.22L281.51 4.22L281.51 4.22Q282.46 3.64 283.77 3.64L283.77 3.64ZM283.77 4.28L283.77 4.28Q282.69 4.28 281.90 4.78L281.90 4.78L281.90 4.78Q281.11 5.28 280.68 6.21L280.68 6.21L280.68 6.21Q280.25 7.14 280.25 8.40L280.25 8.40L280.25 8.40Q280.25 9.66 280.68 10.59L280.68 10.59L280.68 10.59Q281.11 11.52 281.90 12.02L281.90 12.02L281.90 12.02Q282.69 12.52 283.77 12.52L283.77 12.52L283.77 12.52Q284.84 12.52 285.64 12.02L285.64 12.02L285.64 12.02Q286.44 11.52 286.87 10.59L286.87 10.59L286.87 10.59Q287.29 9.66 287.29 8.40L287.29 8.40L287.29 8.40Q287.29 7.14 286.87 6.21L286.87 6.21L286.87 6.21Q286.44 5.28 285.64 4.78L285.64 4.78L285.64 4.78Q284.84 4.28 283.77 4.28L283.77 4.28ZM301.01 3.64L301.01 3.64Q302.32 3.64 303.28 4.22L303.28 4.22L303.28 4.22Q304.23 4.80 304.75 5.87L304.75 5.87L304.75 5.87Q305.27 6.94 305.27 8.40L305.27 8.40L305.27 8.40Q305.27 9.86 304.75 10.93L304.75 10.93L304.75 10.93Q304.23 12.00 303.28 12.58L303.28 12.58L303.28 12.58Q302.32 13.16 301.01 13.16L301.01 13.16L301.01 13.16Q299.71 13.16 298.75 12.58L298.75 12.58L298.75 12.58Q297.79 12.00 297.28 10.93L297.28 10.93L297.28 10.93Q296.76 9.86 296.76 8.40L296.76 8.40L296.76 8.40Q296.76 6.94 297.28 5.87L297.28 5.87L297.28 5.87Q297.79 4.80 298.75 4.22L298.75 4.22L298.75 4.22Q299.71 3.64 301.01 3.64L301.01 3.64ZM301.01 4.28L301.01 4.28Q299.94 4.28 299.15 4.78L299.15 4.78L299.15 4.78Q298.35 5.28 297.93 6.21L297.93 6.21L297.93 6.21Q297.50 7.14 297.50 8.40L297.50 8.40L297.50 8.40Q297.50 9.66 297.93 10.59L297.93 10.59L297.93 10.59Q298.35 11.52 299.15 12.02L299.15 12.02L299.15 12.02Q299.94 12.52 301.01 12.52L301.01 12.52L301.01 12.52Q302.09 12.52 302.89 12.02L302.89 12.02L302.89 12.02Q303.69 11.52 304.12 10.59L304.12 10.59L304.12 10.59Q304.54 9.66 304.54 8.40L304.54 8.40L304.54 8.40Q304.54 7.14 304.12 6.21L304.12 6.21L304.12 6.21Q303.69 5.28 302.89 4.78L302.89 4.78L302.89 4.78Q302.09 4.28 301.01 4.28L301.01 4.28ZM320.53 13.02L317.14 8.04L315.29 9.91L315.29 13.02L314.59 13.02L314.59 3.78L315.29 3.78L315.29 8.96L320.36 3.78L321.29 3.78L317.63 7.52L321.38 13.02L320.53 13.02ZM330.83 12.38L336.67 12.38L336.67 13.02L330.13 13.02L330.13 3.78L336.45 3.78L336.45 4.42L330.83 4.42L330.83 7.99L335.27 7.99L335.27 8.65L330.83 8.65L330.83 12.38ZM352.65 13.02L351.82 13.02L349.17 9.02L349.13 9.02L346.40 9.02L346.40 13.02L345.70 13.02L345.70 3.78L349.13 3.78L349.13 3.78Q350.52 3.78 351.34 4.48L351.34 4.48L351.34 4.48Q352.16 5.18 352.16 6.40L352.16 6.40L352.16 6.40Q352.16 7.41 351.57 8.07L351.57 8.07L351.57 8.07Q350.98 8.74 349.96 8.93L349.96 8.93L352.65 13.02ZM346.40 4.42L346.40 8.36L349.12 8.36L349.12 8.36Q350.24 8.36 350.83 7.85L350.83 7.85L350.83 7.85Q351.43 7.35 351.43 6.40L351.43 6.40L351.43 6.40Q351.43 5.45 350.83 4.93L350.83 4.93L350.83 4.93Q350.24 4.42 349.12 4.42L349.12 4.42L346.40 4.42ZM361.75 11.87L361.75 11.87Q362.03 11.87 362.20 12.05L362.20 12.05L362.20 12.05Q362.38 12.22 362.38 12.50L362.38 12.50L362.38 12.50Q362.38 12.78 362.20 12.96L362.20 12.96L362.20 12.96Q362.03 13.13 361.75 13.13L361.75 13.13L361.75 13.13Q361.47 13.13 361.29 12.96L361.29 12.96L361.29 12.96Q361.12 12.78 361.12 12.50L361.12 12.50L361.12 12.50Q361.12 12.22 361.29 12.05L361.29 12.05L361.29 12.05Q361.47 11.87 361.75 11.87L361.75 11.87ZM378.55 10.68L378.55 10.68Q378.15 11.86 377.18 12.51L377.18 12.51L377.18 12.51Q376.21 13.16 374.85 13.16L374.85 13.16L374.85 13.16Q373.59 13.16 372.64 12.58L372.64 12.58L372.64 12.58Q371.69 12.00 371.17 10.92L371.17 10.92L371.17 10.92Q370.65 9.84 370.65 8.40L370.65 8.40L370.65 8.40Q370.65 6.96 371.17 5.88L371.17 5.88L371.17 5.88Q371.69 4.80 372.64 4.22L372.64 4.22L372.64 4.22Q373.59 3.64 374.84 3.64L374.84 3.64L374.84 3.64Q377.61 3.64 378.42 5.92L378.42 5.92L377.73 6.24L377.73 6.24Q377.41 5.26 376.70 4.77L376.70 4.77L376.70 4.77Q376.00 4.28 374.88 4.28L374.88 4.28L374.88 4.28Q373.84 4.28 373.05 4.78L373.05 4.78L373.05 4.78Q372.26 5.28 371.83 6.21L371.83 6.21L371.83 6.21Q371.39 7.14 371.39 8.40L371.39 8.40L371.39 8.40Q371.39 9.66 371.82 10.59L371.82 10.59L371.82 10.59Q372.25 11.52 373.02 12.02L373.02 12.02L373.02 12.02Q373.80 12.52 374.85 12.52L374.85 12.52L374.85 12.52Q375.97 12.52 376.75 11.97L376.75 11.97L376.75 11.97Q377.54 11.42 377.85 10.42L377.85 10.42L378.55 10.68ZM391.27 3.64L391.27 3.64Q392.57 3.64 393.53 4.22L393.53 4.22L393.53 4.22Q394.49 4.80 395.01 5.87L395.01 5.87L395.01 5.87Q395.53 6.94 395.53 8.40L395.53 8.40L395.53 8.40Q395.53 9.86 395.01 10.93L395.01 10.93L395.01 10.93Q394.49 12.00 393.53 12.58L393.53 12.58L393.53 12.58Q392.57 13.16 391.27 13.16L391.27 13.16L391.27 13.16Q389.97 13.16 389.01 12.58L389.01 12.58L389.01 12.58Q388.05 12.00 387.53 10.93L387.53 10.93L387.53 10.93Q387.02 9.86 387.02 8.40L387.02 8.40L387.02 8.40Q387.02 6.94 387.53 5.87L387.53 5.87L387.53 5.87Q388.05 4.80 389.01 4.22L389.01 4.22L389.01 4.22Q389.97 3.64 391.27 3.64L391.27 3.64ZM391.27 4.28L391.27 4.28Q390.19 4.28 389.40 4.78L389.40 4.78L389.40 4.78Q388.61 5.28 388.18 6.21L388.18 6.21L388.18 6.21Q387.76 7.14 387.76 8.40L387.76 8.40L387.76 8.40Q387.76 9.66 388.18 10.59L388.18 10.59L388.18 10.59Q388.61 11.52 389.40 12.02L389.40 12.02L389.40 12.02Q390.19 12.52 391.27 12.52L391.27 12.52L391.27 12.52Q392.35 12.52 393.15 12.02L393.15 12.02L393.15 12.02Q393.95 11.52 394.37 10.59L394.37 10.59L394.37 10.59Q394.80 9.66 394.80 8.40L394.80 8.40L394.80 8.40Q394.80 7.14 394.37 6.21L394.37 6.21L394.37 6.21Q393.95 5.28 393.15 4.78L393.15 4.78L393.15 4.78Q392.35 4.28 391.27 4.28L391.27 4.28ZM413.45 3.78L413.45 13.02L412.78 13.02L412.78 6.13L412.86 4.45L412.85 4.45L409.47 13.02L408.83 13.02L405.45 4.45L405.44 4.45L405.52 6.13L405.52 13.02L404.85 13.02L404.85 3.78L405.90 3.78L408.69 10.78L409.15 12.19L409.16 12.19L409.61 10.79L412.40 3.78L413.45 3.78Z"></path></g></svg>