<svg data-v-423bf9ae="" xmlns="http://www.w3.org/2000/svg" viewBox="0 0 266.78242461029157 60" class="font"><!----><!----><!----><g data-v-423bf9ae="" id="3fed9b3e-ed4b-4203-92e6-46c26c6e7233" fill="white" transform="matrix(6.128702640533447,0,0,6.128702640533447,-7.599578857421875,-18.079673767089844)"><path d="M1.24 12.61L1.24 2.95L4.59 2.95L4.59 2.95Q5.39 2.95 6.09 3.21L6.09 3.21L6.09 3.21Q6.79 3.47 7.24 4.05L7.24 4.05L7.24 4.05Q7.68 4.63 7.68 5.55L7.68 5.55L7.68 5.55Q7.68 6.17 7.37 6.69L7.37 6.69L7.37 6.69Q7.05 7.20 6.61 7.44L6.61 7.44L6.61 7.44Q7.04 7.61 7.40 7.98L7.40 7.98L7.40 7.98Q7.75 8.36 7.96 8.84L7.96 8.84L7.96 8.84Q8.16 9.32 8.16 9.80L8.16 9.80L8.16 9.80Q8.16 10.67 7.73 11.31L7.73 11.31L7.73 11.31Q7.29 11.94 6.57 12.27L6.57 12.27L6.57 12.27Q5.84 12.61 5.01 12.61L5.01 12.61L1.24 12.61ZM2.98 6.84L4.76 6.84L4.76 6.84Q5.35 6.84 5.72 6.57L5.72 6.57L5.72 6.57Q6.09 6.30 6.09 5.65L6.09 5.65L6.09 5.65Q6.09 5.10 5.68 4.81L5.68 4.81L5.68 4.81Q5.27 4.51 4.62 4.51L4.62 4.51L2.98 4.51L2.98 6.84ZM2.98 10.95L5.04 10.95L5.04 10.95Q5.72 10.95 6.09 10.62L6.09 10.62L6.09 10.62Q6.45 10.28 6.45 9.61L6.45 9.61L6.45 9.61Q6.45 9.26 6.27 8.97L6.27 8.97L6.27 8.97Q6.08 8.68 5.75 8.51L5.75 8.51L5.75 8.51Q5.41 8.33 4.97 8.33L4.97 8.33L2.98 8.33L2.98 10.95ZM12.56 12.74L12.56 12.74Q11.53 12.74 10.73 12.26L10.73 12.26L10.73 12.26Q9.93 11.78 9.50 10.96L9.50 10.96L9.50 10.96Q9.06 10.14 9.06 9.17L9.06 9.17L9.06 9.17Q9.06 8.21 9.50 7.40L9.50 7.40L9.50 7.40Q9.93 6.59 10.73 6.11L10.73 6.11L10.73 6.11Q11.53 5.63 12.56 5.63L12.56 5.63L12.56 5.63Q13.58 5.63 14.38 6.11L14.38 6.11L14.38 6.11Q15.18 6.59 15.62 7.40L15.62 7.40L15.62 7.40Q16.06 8.21 16.06 9.17L16.06 9.17L16.06 9.17Q16.06 10.14 15.62 10.96L15.62 10.96L15.62 10.96Q15.18 11.78 14.38 12.26L14.38 12.26L14.38 12.26Q13.58 12.74 12.56 12.74L12.56 12.74ZM12.56 11.31L12.56 11.31Q13.16 11.31 13.56 11.02L13.56 11.02L13.56 11.02Q13.95 10.73 14.14 10.24L14.14 10.24L14.14 10.24Q14.32 9.76 14.32 9.17L14.32 9.17L14.32 9.17Q14.32 8.26 13.89 7.67L13.89 7.67L13.89 7.67Q13.45 7.08 12.56 7.08L12.56 7.08L12.56 7.08Q11.96 7.08 11.56 7.36L11.56 7.36L11.56 7.36Q11.16 7.64 10.98 8.11L10.98 8.11L10.98 8.11Q10.79 8.59 10.79 9.17L10.79 9.17L10.79 9.17Q10.79 9.76 10.98 10.24L10.98 10.24L10.98 10.24Q11.16 10.73 11.56 11.02L11.56 11.02L11.56 11.02Q11.96 11.31 12.56 11.31L12.56 11.31ZM20.27 12.74L20.27 12.74Q19.24 12.74 18.44 12.26L18.44 12.26L18.44 12.26Q17.64 11.78 17.21 10.96L17.21 10.96L17.21 10.96Q16.77 10.14 16.77 9.17L16.77 9.17L16.77 9.17Q16.77 8.21 17.21 7.40L17.21 7.40L17.21 7.40Q17.64 6.59 18.44 6.11L18.44 6.11L18.44 6.11Q19.24 5.63 20.27 5.63L20.27 5.63L20.27 5.63Q21.29 5.63 22.09 6.11L22.09 6.11L22.09 6.11Q22.89 6.59 23.33 7.40L23.33 7.40L23.33 7.40Q23.77 8.21 23.77 9.17L23.77 9.17L23.77 9.17Q23.77 10.14 23.33 10.96L23.33 10.96L23.33 10.96Q22.89 11.78 22.09 12.26L22.09 12.26L22.09 12.26Q21.29 12.74 20.27 12.74L20.27 12.74ZM20.27 11.31L20.27 11.31Q20.87 11.31 21.27 11.02L21.27 11.02L21.27 11.02Q21.66 10.73 21.85 10.24L21.85 10.24L21.85 10.24Q22.03 9.76 22.03 9.17L22.03 9.17L22.03 9.17Q22.03 8.26 21.60 7.67L21.60 7.67L21.60 7.67Q21.16 7.08 20.27 7.08L20.27 7.08L20.27 7.08Q19.67 7.08 19.27 7.36L19.27 7.36L19.27 7.36Q18.87 7.64 18.69 8.11L18.69 8.11L18.69 8.11Q18.50 8.59 18.50 9.17L18.50 9.17L18.50 9.17Q18.50 9.76 18.69 10.24L18.69 10.24L18.69 10.24Q18.87 10.73 19.27 11.02L19.27 11.02L19.27 11.02Q19.67 11.31 20.27 11.31L20.27 11.31ZM25.14 12.61L25.14 2.95L26.80 2.95L26.80 8.61L29.38 5.78L31.55 5.78L28.99 8.42L31.83 12.61L29.86 12.61L27.86 9.44L26.80 10.60L26.80 12.61L25.14 12.61ZM35.61 12.74L35.61 12.74Q34.48 12.74 33.70 12.26L33.70 12.26L33.70 12.26Q32.92 11.77 32.54 10.97L32.54 10.97L32.54 10.97Q32.15 10.17 32.15 9.21L32.15 9.21L32.15 9.21Q32.15 8.29 32.52 7.46L32.52 7.46L32.52 7.46Q32.89 6.64 33.64 6.14L33.64 6.14L33.64 6.14Q34.40 5.63 35.50 5.63L35.50 5.63L35.50 5.63Q36.62 5.63 37.33 6.15L37.33 6.15L37.33 6.15Q38.04 6.67 38.35 7.45L38.35 7.45L38.35 7.45Q38.66 8.23 38.66 9.08L38.66 9.08L38.66 9.08Q38.66 9.28 38.65 9.47L38.65 9.47L38.65 9.47Q38.63 9.66 38.60 9.73L38.60 9.73L33.91 9.73L33.91 9.73Q34.15 11.23 35.62 11.23L35.62 11.23L35.62 11.23Q36.11 11.23 36.51 11.06L36.51 11.06L36.51 11.06Q36.91 10.89 37.26 10.51L37.26 10.51L38.41 11.51L38.41 11.51Q37.85 12.13 37.16 12.44L37.16 12.44L37.16 12.44Q36.47 12.74 35.61 12.74L35.61 12.74ZM33.91 8.53L37.02 8.53L37.02 8.53Q36.94 7.81 36.54 7.42L36.54 7.42L36.54 7.42Q36.14 7.03 35.49 7.03L35.49 7.03L35.49 7.03Q34.19 7.03 33.91 8.53L33.91 8.53ZM40.06 12.61L40.06 5.78L41.69 5.78L41.69 6.92L41.69 6.92Q41.90 6.32 42.41 5.98L42.41 5.98L42.41 5.98Q42.92 5.63 43.52 5.63L43.52 5.63L43.52 5.63Q43.87 5.63 44.20 5.76L44.20 5.76L44.20 5.76Q44.53 5.88 44.77 6.13L44.77 6.13L44.01 7.49L44.01 7.49Q43.66 7.26 43.26 7.26L43.26 7.26L43.26 7.26Q42.85 7.26 42.49 7.52L42.49 7.52L42.49 7.52Q42.12 7.79 41.90 8.34L41.90 8.34L41.90 8.34Q41.67 8.89 41.67 9.72L41.67 9.72L41.67 12.61L40.06 12.61Z"></path></g><!----><!----></svg>